<?xml version="1.0" encoding="UTF-8"?>
<svg id="Capa_1" data-name="Capa 1" xmlns="http://www.w3.org/2000/svg" xmlns:xlink="http://www.w3.org/1999/xlink" viewBox="0 0 2158 458.23">
  <defs>
    <style>
      .cls-1, .cls-2, .cls-3 {
        fill: none;
      }

      .cls-2 {
        stroke: #000;
      }

      .cls-2, .cls-3 {
        stroke-miterlimit: 10;
        stroke-width: 16.88px;
      }

      .cls-3 {
        stroke: #fff;
      }

      .cls-4 {
        clip-path: url(#clippath);
      }
    </style>
    <clipPath id="clippath">
      <rect class="cls-1" width="2158" height="458.23"/>
    </clipPath>
  </defs>
  <g class="cls-4">
    <g>
      <path class="cls-2" d="M6.37,70.11L43.25,23.19l34.59,46.65,32.41-45.17,34.09,45.17,32.8-44.11,33.05,44.37,32.41-44.9,33.7,44.9,32.67-45.43,33.7,45.43,32.92-45.43,32.93,45.43,33.71-45.43,33.7,45.43,32.28-45.43,34.32,45.43,36.88-46.92,34.59,46.65,32.41-45.17,34.09,45.17,32.79-44.11,33.05,44.37,32.41-44.9,33.7,44.9,32.67-45.43,33.7,45.43,32.92-45.43,32.93,45.43,33.7-45.43,33.71,45.43,32.27-45.43,34.32,45.43,36.88-46.92,34.59,46.65,32.41-45.17,34.1,45.17,32.79-44.11,33.05,44.37,32.41-44.9,33.7,44.9,32.67-45.43,33.7,45.43,32.93-45.43,32.93,45.43,33.7-45.43,33.7,45.43,32.28-45.43,34.32,45.43,36.88-46.92,34.59,46.65,32.41-45.17,34.09,45.17,32.8-44.11,33.05,44.37,32.41-44.9,33.7,44.9,32.67-45.43,33.7,45.43,32.93-45.43,32.92,45.43,33.7-45.43,33.71,45.43,32.28-45.43,34.32,45.43"/>
      <path class="cls-3" d="M6.37,93.57l36.88-46.91,34.59,46.65,32.41-45.16,34.09,45.16,32.8-44.1,33.05,44.37,32.41-44.9,33.7,44.9,32.67-45.43,33.7,45.43,32.92-45.43,32.93,45.43,33.71-45.43,33.7,45.43,32.28-45.43,34.32,45.43,36.88-46.91,34.59,46.65,32.41-45.16,34.09,45.16,32.79-44.1,33.05,44.37,32.41-44.9,33.7,44.9,32.67-45.43,33.7,45.43,32.92-45.43,32.93,45.43,33.7-45.43,33.71,45.43,32.27-45.43,34.32,45.43,36.88-46.91,34.59,46.65,32.41-45.16,34.1,45.16,32.79-44.1,33.05,44.37,32.41-44.9,33.7,44.9,32.67-45.43,33.7,45.43,32.93-45.43,32.93,45.43,33.7-45.43,33.7,45.43,32.28-45.43,34.32,45.43,36.88-46.91,34.59,46.65,32.41-45.16,34.09,45.16,32.8-44.1,33.05,44.37,32.41-44.9,33.7,44.9,32.67-45.43,33.7,45.43,32.93-45.43,32.92,45.43,33.7-45.43,33.71,45.43,32.28-45.43,34.32,45.43"/>
      <path class="cls-2" d="M6.37,70.11L43.25,23.19l34.59,46.65,32.41-45.17,34.09,45.17,32.8-44.11,33.05,44.37,32.41-44.9,33.7,44.9,32.67-45.43,33.7,45.43,32.92-45.43,32.93,45.43,33.71-45.43,33.7,45.43,32.28-45.43,34.32,45.43,36.88-46.92,34.59,46.65,32.41-45.17,34.09,45.17,32.79-44.11,33.05,44.37,32.41-44.9,33.7,44.9,32.67-45.43,33.7,45.43,32.92-45.43,32.93,45.43,33.7-45.43,33.71,45.43,32.27-45.43,34.32,45.43,36.88-46.92,34.59,46.65,32.41-45.17,34.1,45.17,32.79-44.11,33.05,44.37,32.41-44.9,33.7,44.9,32.67-45.43,33.7,45.43,32.93-45.43,32.93,45.43,33.7-45.43,33.7,45.43,32.28-45.43,34.32,45.43,36.88-46.92,34.59,46.65,32.41-45.17,34.09,45.17,32.8-44.11,33.05,44.37,32.41-44.9,33.7,44.9,32.67-45.43,33.7,45.43,32.93-45.43,32.92,45.43,33.7-45.43,33.71,45.43,32.28-45.43,34.32,45.43"/>
      <path class="cls-2" d="M6.37,117.02l36.88-46.91,34.59,46.65,32.41-45.16,34.09,45.16,32.8-44.11,33.05,44.37,32.41-44.9,33.7,44.9,32.67-45.43,33.7,45.43,32.92-45.43,32.93,45.43,33.71-45.43,33.7,45.43,32.28-45.43,34.32,45.43,36.88-46.91,34.59,46.65,32.41-45.16,34.09,45.16,32.79-44.11,33.05,44.37,32.41-44.9,33.7,44.9,32.67-45.43,33.7,45.43,32.92-45.43,32.93,45.43,33.7-45.43,33.71,45.43,32.27-45.43,34.32,45.43,36.88-46.91,34.59,46.65,32.41-45.16,34.1,45.16,32.79-44.11,33.05,44.37,32.41-44.9,33.7,44.9,32.67-45.43,33.7,45.43,32.93-45.43,32.93,45.43,33.7-45.43,33.7,45.43,32.28-45.43,34.32,45.43,36.88-46.91,34.59,46.65,32.41-45.16,34.09,45.16,32.8-44.11,33.05,44.37,32.41-44.9,33.7,44.9,32.67-45.43,33.7,45.43,32.93-45.43,32.92,45.43,33.7-45.43,33.71,45.43,32.28-45.43,34.32,45.43"/>
      <path class="cls-3" d="M6.37,144.34l36.88-46.91,34.59,46.65,32.41-45.16,34.09,45.16,32.8-44.1,33.05,44.37,32.41-44.9,33.7,44.9,32.67-45.43,33.7,45.43,32.92-45.43,32.93,45.43,33.71-45.43,33.7,45.43,32.28-45.43,34.32,45.43,36.88-46.91,34.59,46.65,32.41-45.16,34.09,45.16,32.79-44.1,33.05,44.37,32.41-44.9,33.7,44.9,32.67-45.43,33.7,45.43,32.92-45.43,32.93,45.43,33.7-45.43,33.71,45.43,32.27-45.43,34.32,45.43,36.88-46.91,34.59,46.65,32.41-45.16,34.1,45.16,32.79-44.1,33.05,44.37,32.41-44.9,33.7,44.9,32.67-45.43,33.7,45.43,32.93-45.43,32.93,45.43,33.7-45.43,33.7,45.43,32.28-45.43,34.32,45.43,36.88-46.91,34.59,46.65,32.41-45.16,34.09,45.16,32.8-44.1,33.05,44.37,32.41-44.9,33.7,44.9,32.67-45.43,33.7,45.43,32.93-45.43,32.92,45.43,33.7-45.43,33.71,45.43,32.28-45.43,34.32,45.43"/>
      <path class="cls-2" d="M6.37,120.88l36.88-46.92,34.59,46.65,32.41-45.16,34.09,45.16,32.8-44.11,33.05,44.37,32.41-44.9,33.7,44.9,32.67-45.43,33.7,45.43,32.92-45.43,32.93,45.43,33.71-45.43,33.7,45.43,32.28-45.43,34.32,45.43,36.88-46.92,34.59,46.65,32.41-45.16,34.09,45.16,32.79-44.11,33.05,44.37,32.41-44.9,33.7,44.9,32.67-45.43,33.7,45.43,32.92-45.43,32.93,45.43,33.7-45.43,33.71,45.43,32.27-45.43,34.32,45.43,36.88-46.92,34.59,46.65,32.41-45.16,34.1,45.16,32.79-44.11,33.05,44.37,32.41-44.9,33.7,44.9,32.67-45.43,33.7,45.43,32.93-45.43,32.93,45.43,33.7-45.43,33.7,45.43,32.28-45.43,34.32,45.43,36.88-46.92,34.59,46.65,32.41-45.16,34.09,45.16,32.8-44.11,33.05,44.37,32.41-44.9,33.7,44.9,32.67-45.43,33.7,45.43,32.93-45.43,32.92,45.43,33.7-45.43,33.71,45.43,32.28-45.43,34.32,45.43"/>
      <path class="cls-2" d="M6.37,167.79l36.88-46.91,34.59,46.65,32.41-45.16,34.09,45.16,32.8-44.11,33.05,44.37,32.41-44.9,33.7,44.9,32.67-45.43,33.7,45.43,32.92-45.43,32.93,45.43,33.71-45.43,33.7,45.43,32.28-45.43,34.32,45.43,36.88-46.91,34.59,46.65,32.41-45.16,34.09,45.16,32.79-44.11,33.05,44.37,32.41-44.9,33.7,44.9,32.67-45.43,33.7,45.43,32.92-45.43,32.93,45.43,33.7-45.43,33.71,45.43,32.27-45.43,34.32,45.43,36.88-46.91,34.59,46.65,32.41-45.16,34.1,45.16,32.79-44.11,33.05,44.37,32.41-44.9,33.7,44.9,32.67-45.43,33.7,45.43,32.93-45.43,32.93,45.43,33.7-45.43,33.7,45.43,32.28-45.43,34.32,45.43,36.88-46.91,34.59,46.65,32.41-45.16,34.09,45.16,32.8-44.11,33.05,44.37,32.41-44.9,33.7,44.9,32.67-45.43,33.7,45.43,32.93-45.43,32.92,45.43,33.7-45.43,33.71,45.43,32.28-45.43,34.32,45.43"/>
      <path class="cls-3" d="M6.37,191.25l36.88-46.92,34.59,46.65,32.41-45.16,34.09,45.16,32.8-44.11,33.05,44.37,32.41-44.9,33.7,44.9,32.67-45.43,33.7,45.43,32.92-45.43,32.93,45.43,33.71-45.43,33.7,45.43,32.28-45.43,34.32,45.43,36.88-46.92,34.59,46.65,32.41-45.16,34.09,45.16,32.79-44.11,33.05,44.37,32.41-44.9,33.7,44.9,32.67-45.43,33.7,45.43,32.92-45.43,32.93,45.43,33.7-45.43,33.71,45.43,32.27-45.43,34.32,45.43,36.88-46.92,34.59,46.65,32.41-45.16,34.1,45.16,32.79-44.11,33.05,44.37,32.41-44.9,33.7,44.9,32.67-45.43,33.7,45.43,32.93-45.43,32.93,45.43,33.7-45.43,33.7,45.43,32.28-45.43,34.32,45.43,36.88-46.92,34.59,46.65,32.41-45.16,34.09,45.16,32.8-44.11,33.05,44.37,32.41-44.9,33.7,44.9,32.67-45.43,33.7,45.43,32.93-45.43,32.92,45.43,33.7-45.43,33.71,45.43,32.28-45.43,34.32,45.43"/>
      <path class="cls-2" d="M6.37,167.79l36.88-46.91,34.59,46.65,32.41-45.16,34.09,45.16,32.8-44.11,33.05,44.37,32.41-44.9,33.7,44.9,32.67-45.43,33.7,45.43,32.92-45.43,32.93,45.43,33.71-45.43,33.7,45.43,32.28-45.43,34.32,45.43,36.88-46.91,34.59,46.65,32.41-45.16,34.09,45.16,32.79-44.11,33.05,44.37,32.41-44.9,33.7,44.9,32.67-45.43,33.7,45.43,32.92-45.43,32.93,45.43,33.7-45.43,33.71,45.43,32.27-45.43,34.32,45.43,36.88-46.91,34.59,46.65,32.41-45.16,34.1,45.16,32.79-44.11,33.05,44.37,32.41-44.9,33.7,44.9,32.67-45.43,33.7,45.43,32.93-45.43,32.93,45.43,33.7-45.43,33.7,45.43,32.28-45.43,34.32,45.43,36.88-46.91,34.59,46.65,32.41-45.16,34.09,45.16,32.8-44.11,33.05,44.37,32.41-44.9,33.7,44.9,32.67-45.43,33.7,45.43,32.93-45.43,32.92,45.43,33.7-45.43,33.71,45.43,32.28-45.43,34.32,45.43"/>
      <path class="cls-2" d="M6.37,214.71l36.88-46.92,34.59,46.65,32.41-45.16,34.09,45.16,32.8-44.11,33.05,44.37,32.41-44.9,33.7,44.9,32.67-45.43,33.7,45.43,32.92-45.43,32.93,45.43,33.71-45.43,33.7,45.43,32.28-45.43,34.32,45.43,36.88-46.92,34.59,46.65,32.41-45.16,34.09,45.16,32.79-44.11,33.05,44.37,32.41-44.9,33.7,44.9,32.67-45.43,33.7,45.43,32.92-45.43,32.93,45.43,33.7-45.43,33.71,45.43,32.27-45.43,34.32,45.43,36.88-46.92,34.59,46.65,32.41-45.16,34.1,45.16,32.79-44.11,33.05,44.37,32.41-44.9,33.7,44.9,32.67-45.43,33.7,45.43,32.93-45.43,32.93,45.43,33.7-45.43,33.7,45.43,32.28-45.43,34.32,45.43,36.88-46.92,34.59,46.65,32.41-45.16,34.09,45.16,32.8-44.11,33.05,44.37,32.41-44.9,33.7,44.9,32.67-45.43,33.7,45.43,32.93-45.43,32.92,45.43,33.7-45.43,33.71,45.43,32.28-45.43,34.32,45.43"/>
      <path class="cls-3" d="M6.37,238.17l36.88-46.91,34.59,46.65,32.41-45.16,34.09,45.16,32.8-44.11,33.05,44.37,32.41-44.9,33.7,44.9,32.67-45.43,33.7,45.43,32.92-45.43,32.93,45.43,33.71-45.43,33.7,45.43,32.28-45.43,34.32,45.43,36.88-46.91,34.59,46.65,32.41-45.16,34.09,45.16,32.79-44.11,33.05,44.37,32.41-44.9,33.7,44.9,32.67-45.43,33.7,45.43,32.92-45.43,32.93,45.43,33.7-45.43,33.71,45.43,32.27-45.43,34.32,45.43,36.88-46.91,34.59,46.65,32.41-45.16,34.1,45.16,32.79-44.11,33.05,44.37,32.41-44.9,33.7,44.9,32.67-45.43,33.7,45.43,32.93-45.43,32.93,45.43,33.7-45.43,33.7,45.43,32.28-45.43,34.32,45.43,36.88-46.91,34.59,46.65,32.41-45.16,34.09,45.16,32.8-44.11,33.05,44.37,32.41-44.9,33.7,44.9,32.67-45.43,33.7,45.43,32.93-45.43,32.92,45.43,33.7-45.43,33.71,45.43,32.28-45.43,34.32,45.43"/>
      <path class="cls-2" d="M6.37,214.71l36.88-46.92,34.59,46.65,32.41-45.16,34.09,45.16,32.8-44.11,33.05,44.37,32.41-44.9,33.7,44.9,32.67-45.43,33.7,45.43,32.92-45.43,32.93,45.43,33.71-45.43,33.7,45.43,32.28-45.43,34.32,45.43,36.88-46.92,34.59,46.65,32.41-45.16,34.09,45.16,32.79-44.11,33.05,44.37,32.41-44.9,33.7,44.9,32.67-45.43,33.7,45.43,32.92-45.43,32.93,45.43,33.7-45.43,33.71,45.43,32.27-45.43,34.32,45.43,36.88-46.92,34.59,46.65,32.41-45.16,34.1,45.16,32.79-44.11,33.05,44.37,32.41-44.9,33.7,44.9,32.67-45.43,33.7,45.43,32.93-45.43,32.93,45.43,33.7-45.43,33.7,45.43,32.28-45.43,34.32,45.43,36.88-46.92,34.59,46.65,32.41-45.16,34.09,45.16,32.8-44.11,33.05,44.37,32.41-44.9,33.7,44.9,32.67-45.43,33.7,45.43,32.93-45.43,32.92,45.43,33.7-45.43,33.71,45.43,32.28-45.43,34.32,45.43"/>
      <path class="cls-2" d="M6.37,261.63l36.88-46.91,34.59,46.65,32.41-45.16,34.09,45.16,32.8-44.1,33.05,44.37,32.41-44.9,33.7,44.9,32.67-45.43,33.7,45.43,32.92-45.43,32.93,45.43,33.71-45.43,33.7,45.43,32.28-45.43,34.32,45.43,36.88-46.91,34.59,46.65,32.41-45.16,34.09,45.16,32.79-44.1,33.05,44.37,32.41-44.9,33.7,44.9,32.67-45.43,33.7,45.43,32.92-45.43,32.93,45.43,33.7-45.43,33.71,45.43,32.27-45.43,34.32,45.43,36.88-46.91,34.59,46.65,32.41-45.16,34.1,45.16,32.79-44.1,33.05,44.37,32.41-44.9,33.7,44.9,32.67-45.43,33.7,45.43,32.93-45.43,32.93,45.43,33.7-45.43,33.7,45.43,32.28-45.43,34.32,45.43,36.88-46.91,34.59,46.65,32.41-45.16,34.09,45.16,32.8-44.1,33.05,44.37,32.41-44.9,33.7,44.9,32.67-45.43,33.7,45.43,32.93-45.43,32.92,45.43,33.7-45.43,33.71,45.43,32.28-45.43,34.32,45.43"/>
      <path class="cls-3" d="M6.37,285.08l36.88-46.92,34.59,46.65,32.41-45.16,34.09,45.16,32.8-44.11,33.05,44.37,32.41-44.9,33.7,44.9,32.67-45.43,33.7,45.43,32.92-45.43,32.93,45.43,33.71-45.43,33.7,45.43,32.28-45.43,34.32,45.43,36.88-46.92,34.59,46.65,32.41-45.16,34.09,45.16,32.79-44.11,33.05,44.37,32.41-44.9,33.7,44.9,32.67-45.43,33.7,45.43,32.92-45.43,32.93,45.43,33.7-45.43,33.71,45.43,32.27-45.43,34.32,45.43,36.88-46.92,34.59,46.65,32.41-45.16,34.1,45.16,32.79-44.11,33.05,44.37,32.41-44.9,33.7,44.9,32.67-45.43,33.7,45.43,32.93-45.43,32.93,45.43,33.7-45.43,33.7,45.43,32.28-45.43,34.32,45.43,36.88-46.92,34.59,46.65,32.41-45.16,34.09,45.16,32.8-44.11,33.05,44.37,32.41-44.9,33.7,44.9,32.67-45.43,33.7,45.43,32.93-45.43,32.92,45.43,33.7-45.43,33.71,45.43,32.28-45.43,34.32,45.43"/>
      <path class="cls-2" d="M6.37,261.63l36.88-46.91,34.59,46.65,32.41-45.16,34.09,45.16,32.8-44.1,33.05,44.37,32.41-44.9,33.7,44.9,32.67-45.43,33.7,45.43,32.92-45.43,32.93,45.43,33.71-45.43,33.7,45.43,32.28-45.43,34.32,45.43,36.88-46.91,34.59,46.65,32.41-45.16,34.09,45.16,32.79-44.1,33.05,44.37,32.41-44.9,33.7,44.9,32.67-45.43,33.7,45.43,32.92-45.43,32.93,45.43,33.7-45.43,33.71,45.43,32.27-45.43,34.32,45.43,36.88-46.91,34.59,46.65,32.41-45.16,34.1,45.16,32.79-44.1,33.05,44.37,32.41-44.9,33.7,44.9,32.67-45.43,33.7,45.43,32.93-45.43,32.93,45.43,33.7-45.43,33.7,45.43,32.28-45.43,34.32,45.43,36.88-46.91,34.59,46.65,32.41-45.16,34.09,45.16,32.8-44.1,33.05,44.37,32.41-44.9,33.7,44.9,32.67-45.43,33.7,45.43,32.93-45.43,32.92,45.43,33.7-45.43,33.71,45.43,32.28-45.43,34.32,45.43"/>
      <path class="cls-2" d="M6.37,308.54l36.88-46.92,34.59,46.65,32.41-45.16,34.09,45.16,32.8-44.11,33.05,44.37,32.41-44.9,33.7,44.9,32.67-45.43,33.7,45.43,32.92-45.43,32.93,45.43,33.71-45.43,33.7,45.43,32.28-45.43,34.32,45.43,36.88-46.92,34.59,46.65,32.41-45.16,34.09,45.16,32.79-44.11,33.05,44.37,32.41-44.9,33.7,44.9,32.67-45.43,33.7,45.43,32.92-45.43,32.93,45.43,33.7-45.43,33.71,45.43,32.27-45.43,34.32,45.43,36.88-46.92,34.59,46.65,32.41-45.16,34.1,45.16,32.79-44.11,33.05,44.37,32.41-44.9,33.7,44.9,32.67-45.43,33.7,45.43,32.93-45.43,32.93,45.43,33.7-45.43,33.7,45.43,32.28-45.43,34.32,45.43,36.88-46.92,34.59,46.65,32.41-45.16,34.09,45.16,32.8-44.11,33.05,44.37,32.41-44.9,33.7,44.9,32.67-45.43,33.7,45.43,32.93-45.43,32.92,45.43,33.7-45.43,33.71,45.43,32.28-45.43,34.32,45.43"/>
      <path class="cls-3" d="M6.37,335.86l36.88-46.92,34.59,46.65,32.41-45.16,34.09,45.16,32.8-44.11,33.05,44.37,32.41-44.9,33.7,44.9,32.67-45.43,33.7,45.43,32.92-45.43,32.93,45.43,33.71-45.43,33.7,45.43,32.28-45.43,34.32,45.43,36.88-46.92,34.59,46.65,32.41-45.16,34.09,45.16,32.79-44.11,33.05,44.37,32.41-44.9,33.7,44.9,32.67-45.43,33.7,45.43,32.92-45.43,32.93,45.43,33.7-45.43,33.71,45.43,32.27-45.43,34.32,45.43,36.88-46.92,34.59,46.65,32.41-45.16,34.1,45.16,32.79-44.11,33.05,44.37,32.41-44.9,33.7,44.9,32.67-45.43,33.7,45.43,32.93-45.43,32.93,45.43,33.7-45.43,33.7,45.43,32.28-45.43,34.32,45.43,36.88-46.92,34.59,46.65,32.41-45.16,34.09,45.16,32.8-44.11,33.05,44.37,32.41-44.9,33.7,44.9,32.67-45.43,33.7,45.43,32.93-45.43,32.92,45.43,33.7-45.43,33.71,45.43,32.28-45.43,34.32,45.43"/>
      <path class="cls-2" d="M6.37,312.4l36.88-46.91,34.59,46.65,32.41-45.16,34.09,45.16,32.8-44.1,33.05,44.37,32.41-44.9,33.7,44.9,32.67-45.42,33.7,45.42,32.92-45.42,32.93,45.42,33.71-45.42,33.7,45.42,32.28-45.42,34.32,45.42,36.88-46.91,34.59,46.65,32.41-45.16,34.09,45.16,32.79-44.1,33.05,44.37,32.41-44.9,33.7,44.9,32.67-45.42,33.7,45.42,32.92-45.42,32.93,45.42,33.7-45.42,33.71,45.42,32.27-45.42,34.32,45.42,36.88-46.91,34.59,46.65,32.41-45.16,34.1,45.16,32.79-44.1,33.05,44.37,32.41-44.9,33.7,44.9,32.67-45.42,33.7,45.42,32.93-45.42,32.93,45.42,33.7-45.42,33.7,45.42,32.28-45.42,34.32,45.42,36.88-46.91,34.59,46.65,32.41-45.16,34.09,45.16,32.8-44.1,33.05,44.37,32.41-44.9,33.7,44.9,32.67-45.42,33.7,45.42,32.93-45.42,32.92,45.42,33.7-45.42,33.71,45.42,32.28-45.42,34.32,45.42"/>
      <path class="cls-2" d="M6.37,359.31l36.88-46.92,34.59,46.65,32.41-45.16,34.09,45.16,32.8-44.11,33.05,44.37,32.41-44.9,33.7,44.9,32.67-45.42,33.7,45.42,32.92-45.42,32.93,45.42,33.71-45.42,33.7,45.42,32.28-45.42,34.32,45.42,36.88-46.92,34.59,46.65,32.41-45.16,34.09,45.16,32.79-44.11,33.05,44.37,32.41-44.9,33.7,44.9,32.67-45.42,33.7,45.42,32.92-45.42,32.93,45.42,33.7-45.42,33.71,45.42,32.27-45.42,34.32,45.42,36.88-46.92,34.59,46.65,32.41-45.16,34.1,45.16,32.79-44.11,33.05,44.37,32.41-44.9,33.7,44.9,32.67-45.42,33.7,45.42,32.93-45.42,32.93,45.42,33.7-45.42,33.7,45.42,32.28-45.42,34.32,45.42,36.88-46.92,34.59,46.65,32.41-45.16,34.09,45.16,32.8-44.11,33.05,44.37,32.41-44.9,33.7,44.9,32.67-45.42,33.7,45.42,32.93-45.42,32.92,45.42,33.7-45.42,33.71,45.42,32.28-45.42,34.32,45.42"/>
      <path class="cls-3" d="M6.37,382.77l36.88-46.92,34.59,46.65,32.41-45.17,34.09,45.17,32.8-44.11,33.05,44.37,32.41-44.9,33.7,44.9,32.67-45.43,33.7,45.43,32.92-45.43,32.93,45.43,33.71-45.43,33.7,45.43,32.28-45.43,34.32,45.43,36.88-46.92,34.59,46.65,32.41-45.17,34.09,45.17,32.79-44.11,33.05,44.37,32.41-44.9,33.7,44.9,32.67-45.43,33.7,45.43,32.92-45.43,32.93,45.43,33.7-45.43,33.71,45.43,32.27-45.43,34.32,45.43,36.88-46.92,34.59,46.65,32.41-45.17,34.1,45.17,32.79-44.11,33.05,44.37,32.41-44.9,33.7,44.9,32.67-45.43,33.7,45.43,32.93-45.43,32.93,45.43,33.7-45.43,33.7,45.43,32.28-45.43,34.32,45.43,36.88-46.92,34.59,46.65,32.41-45.17,34.09,45.17,32.8-44.11,33.05,44.37,32.41-44.9,33.7,44.9,32.67-45.43,33.7,45.43,32.93-45.43,32.92,45.43,33.7-45.43,33.71,45.43,32.28-45.43,34.32,45.43"/>
      <path class="cls-2" d="M6.37,359.31l36.88-46.92,34.59,46.65,32.41-45.16,34.09,45.16,32.8-44.11,33.05,44.37,32.41-44.9,33.7,44.9,32.67-45.42,33.7,45.42,32.92-45.42,32.93,45.42,33.71-45.42,33.7,45.42,32.28-45.42,34.32,45.42,36.88-46.92,34.59,46.65,32.41-45.16,34.09,45.16,32.79-44.11,33.05,44.37,32.41-44.9,33.7,44.9,32.67-45.42,33.7,45.42,32.92-45.42,32.93,45.42,33.7-45.42,33.71,45.42,32.27-45.42,34.32,45.42,36.88-46.92,34.59,46.65,32.41-45.16,34.1,45.16,32.79-44.11,33.05,44.37,32.41-44.9,33.7,44.9,32.67-45.42,33.7,45.42,32.93-45.42,32.93,45.42,33.7-45.42,33.7,45.42,32.28-45.42,34.32,45.42,36.88-46.92,34.59,46.65,32.41-45.16,34.09,45.16,32.8-44.11,33.05,44.37,32.41-44.9,33.7,44.9,32.67-45.42,33.7,45.42,32.93-45.42,32.92,45.42,33.7-45.42,33.71,45.42,32.28-45.42,34.32,45.42"/>
      <path class="cls-2" d="M6.37,406.23l36.88-46.91,34.59,46.65,32.41-45.16,34.09,45.16,32.8-44.1,33.05,44.37,32.41-44.9,33.7,44.9,32.67-45.43,33.7,45.43,32.92-45.43,32.93,45.43,33.71-45.43,33.7,45.43,32.28-45.43,34.32,45.43,36.88-46.91,34.59,46.65,32.41-45.16,34.09,45.16,32.79-44.1,33.05,44.37,32.41-44.9,33.7,44.9,32.67-45.43,33.7,45.43,32.92-45.43,32.93,45.43,33.7-45.43,33.71,45.43,32.27-45.43,34.32,45.43,36.88-46.91,34.59,46.65,32.41-45.16,34.1,45.16,32.79-44.1,33.05,44.37,32.41-44.9,33.7,44.9,32.67-45.43,33.7,45.43,32.93-45.43,32.93,45.43,33.7-45.43,33.7,45.43,32.28-45.43,34.32,45.43,36.88-46.91,34.59,46.65,32.41-45.16,34.09,45.16,32.8-44.1,33.05,44.37,32.41-44.9,33.7,44.9,32.67-45.43,33.7,45.43,32.93-45.43,32.92,45.43,33.7-45.43,33.71,45.43,32.28-45.43,34.32,45.43"/>
    </g>
  </g>
</svg>